<?xml version="1.0" standalone="no"?>
<!DOCTYPE svg PUBLIC "-//W3C//DTD SVG 20010904//EN"
 "http://www.w3.org/TR/2001/REC-SVG-20010904/DTD/svg10.dtd">
<svg version="1.0" xmlns="http://www.w3.org/2000/svg"
 width="340.000000pt" height="340.000000pt" viewBox="0 0 340.000000 340.000000"
 preserveAspectRatio="xMidYMid meet">
<metadata>
Created by potrace 1.14, written by Peter Selinger 2001-2017
</metadata>
<g transform="translate(0.000000,340.000000) scale(0.100000,-0.100000)"
fill="#000000" stroke="none">
<path d="M2871 2980 c-4 -3 -25 -43 -46 -90 -98 -212 -252 -492 -399 -723
-143 -225 -409 -586 -544 -737 -94 -106 -123 -143 -115 -150 4 -4 42 -25 83
-47 41 -22 119 -64 173 -92 53 -29 97 -49 97 -44 1 4 24 33 52 63 28 30 98
112 155 182 l105 127 53 -37 c60 -42 150 -108 339 -246 l128 -94 92 43 c50 24
141 67 203 97 l112 53 -52 46 c-29 26 -91 80 -138 120 -212 183 -377 326 -412
359 l-38 36 63 89 c54 76 132 194 243 365 72 110 190 319 277 488 54 105 97
192 96 193 -17 3 -522 3 -527 -1z"/>
<path d="M1447 2323 c-1 -1 -35 -5 -75 -8 -40 -3 -81 -8 -90 -10 -10 -2 -51
-6 -91 -10 -40 -3 -80 -8 -89 -10 -9 -1 -51 -6 -92 -10 -41 -4 -82 -8 -90 -10
-8 -2 -44 -6 -80 -10 -114 -11 -144 -15 -170 -20 -14 -2 -59 -7 -100 -11 -41
-3 -82 -7 -90 -9 -8 -2 -44 -6 -80 -9 -36 -4 -117 -14 -180 -21 -63 -8 -137
-17 -165 -19 -57 -4 -55 6 -35 -151 16 -133 23 -189 24 -210 1 -18 8 -20 56
-19 30 1 73 4 95 7 22 3 69 9 105 13 36 4 76 8 90 10 14 2 90 10 170 19 80 8
159 17 176 20 17 2 57 7 90 10 32 3 91 10 129 15 179 23 185 23 186 -2 0 -13
2 -32 4 -43 3 -11 7 -40 10 -65 2 -25 7 -63 9 -85 3 -22 7 -60 10 -85 3 -25 8
-67 12 -95 3 -27 7 -61 9 -75 2 -14 6 -50 10 -80 5 -50 10 -92 20 -160 2 -14
7 -53 10 -87 3 -34 7 -70 9 -80 2 -10 7 -45 10 -78 4 -33 9 -75 12 -92 2 -18
6 -48 8 -65 3 -18 8 -60 11 -93 3 -33 8 -71 10 -85 3 -14 7 -47 10 -75 3 -27
8 -67 11 -89 l6 -38 69 6 c39 4 77 9 87 10 9 2 49 7 87 11 39 3 84 8 100 10
42 6 99 12 260 30 154 17 186 21 261 30 28 4 68 8 90 10 40 3 121 12 184 20
47 6 104 13 165 20 85 9 138 15 175 20 19 2 60 7 90 10 80 8 152 16 180 20 14
2 57 7 95 10 102 9 105 11 101 48 -2 18 -7 59 -11 92 -4 33 -8 71 -10 85 -2
14 -7 50 -10 80 -10 92 -10 93 -62 85 -25 -4 -64 -8 -87 -11 -46 -4 -120 -12
-181 -20 -110 -13 -183 -22 -260 -29 -27 -2 -66 -6 -85 -9 -19 -3 -60 -7 -90
-11 -30 -3 -68 -7 -85 -9 -16 -2 -57 -7 -90 -10 -33 -4 -76 -9 -95 -11 -19 -2
-60 -7 -90 -10 -30 -4 -66 -8 -80 -10 -14 -2 -52 -6 -85 -10 -33 -3 -71 -8
-85 -10 -14 -2 -56 -7 -94 -10 -38 -3 -72 -8 -77 -10 -13 -8 -17 6 -29 95 -6
47 -12 99 -15 115 -2 17 -7 57 -10 90 -4 33 -8 67 -10 75 -3 8 -7 46 -11 83
-3 38 -7 77 -9 86 -2 10 -6 42 -10 72 -9 83 -14 120 -20 169 -10 80 -21 168
-30 249 -4 30 -8 61 -10 70 -1 9 -6 47 -10 84 -3 37 -8 76 -10 85 -1 9 -6 49
-11 87 -4 39 -9 73 -10 78 -1 4 -2 18 -3 31 -1 18 -6 24 -21 23 -12 -1 -22 -2
-23 -4z"/>
</g>
</svg>
