<svg width="12" height="20" viewBox="0 0 12 20" fill="none" xmlns="http://www.w3.org/2000/svg">
<path d="M1.18359 19.4531C1.51172 19.4531 1.78906 19.3438 2.01562 19.125L10.7109 10.6055C10.8516 10.4805 10.9512 10.3457 11.0098 10.2012C11.0684 10.0566 11.0977 9.89844 11.0977 9.72656C11.0977 9.55469 11.0684 9.39648 11.0098 9.25195C10.9512 9.10742 10.8516 8.97266 10.7109 8.84766L2.01562 0.328125C1.78906 0.109375 1.51172 0 1.18359 0C0.964844 0 0.765625 0.0488281 0.585938 0.146484C0.40625 0.244141 0.263672 0.382812 0.158203 0.5625C0.0527344 0.742188 0 0.941406 0 1.16016C0 1.48047 0.121094 1.76172 0.363281 2.00391L8.27344 9.72656L0.363281 17.4492C0.121094 17.6914 0 17.9727 0 18.293C0 18.5039 0.0527344 18.7012 0.158203 18.8848C0.263672 19.0684 0.40625 19.209 0.585938 19.3066C0.765625 19.4043 0.964844 19.4531 1.18359 19.4531Z" fill="white"/>
</svg>
