<svg width="9" height="15" viewBox="0 0 9 15" fill="none" xmlns="http://www.w3.org/2000/svg">
<path d="M0.887695 14.5898C1.13379 14.5898 1.3418 14.5078 1.51172 14.3438L8.0332 7.9541C8.13867 7.86035 8.21338 7.75928 8.25732 7.65088C8.30127 7.54248 8.32324 7.42383 8.32324 7.29492C8.32324 7.16602 8.30127 7.04736 8.25732 6.93896C8.21338 6.83057 8.13867 6.72949 8.0332 6.63574L1.51172 0.246094C1.3418 0.0820312 1.13379 0 0.887695 0C0.723633 0 0.574219 0.0366211 0.439453 0.109863C0.304688 0.183105 0.197754 0.287109 0.118652 0.421875C0.0395508 0.556641 0 0.706055 0 0.870117C0 1.11035 0.0908203 1.32129 0.272461 1.50293L6.20508 7.29492L0.272461 13.0869C0.0908203 13.2686 0 13.4795 0 13.7197C0 13.8779 0.0395508 14.0259 0.118652 14.1636C0.197754 14.3013 0.304688 14.4067 0.439453 14.48C0.574219 14.5532 0.723633 14.5898 0.887695 14.5898Z" fill="#0E7159"/>
</svg>
